<svg xmlns="http://www.w3.org/2000/svg" viewBox="0 0 102 102">
  <path d="M50 97.682C23.708 97.682 2.318 76.292 2.318 50S23.708 2.318 50 2.318 97.682 23.708 97.682 50 76.292 97.682 50 97.682zm0-88.164C27.678 9.518 9.518 27.678 9.518 50c0 22.321 18.16 40.481 40.482 40.481S90.481 72.321 90.481 50C90.481 27.678 72.322 9.518 50 9.518zm32.061 24.755c-1.522 4.1-5.469 7.021-10.098 7.021-5.947 0-10.768-4.821-10.768-10.768 0-4.629 2.922-8.575 7.021-10.097a22.018 22.018 0 0 0-7.047-1.151c-12.173 0-22.041 9.868-22.041 22.041S48.996 63.36 61.169 63.36 83.21 53.493 83.21 41.319a21.988 21.988 0 0 0-1.149-7.046z"/>
</svg>