<svg xmlns="http://www.w3.org/2000/svg" viewBox="0 0 512.002 512.002" style="enable-background:new 0 0 512.002 512.002" xml:space="preserve">
	<path d="M510.47 206.184a7.604 7.604 0 0 0-6.072-3.027H455.72L359.241 50.359c-.03-.048-.068-.09-.099-.137a8.414 8.414 0 0 0-.305-.424c-.077-.1-.153-.202-.234-.298a7.94 7.94 0 0 0-.354-.381c-.087-.089-.17-.18-.262-.265-.132-.123-.273-.235-.413-.349-.09-.073-.176-.15-.27-.218-.162-.119-.335-.225-.507-.331-.08-.05-.156-.105-.237-.152a7.739 7.739 0 0 0-.796-.393l-.004-.002-.006-.003-76.628-32.305a7.6 7.6 0 0 0-6.7.39l-84.173 47.656-.006.003-.033.019a7.487 7.487 0 0 0-.77.503c-.072.053-.137.114-.207.169-.176.14-.349.284-.511.438-.082.078-.159.162-.238.243a7.647 7.647 0 0 0-.622.731c-.119.16-.23.325-.337.494-.062.098-.125.196-.182.297-.112.197-.21.399-.303.605-.036.081-.079.159-.114.242-.12.291-.223.591-.306.897l-.011.031-17.62 65.853-78.718 25.341c-.059.019-.112.049-.17.07a7.69 7.69 0 0 0-1.08.473c-.09.049-.185.087-.273.139-.126.074-.241.162-.362.242-.09.061-.182.118-.27.182-.28.205-.549.422-.796.661a7.428 7.428 0 0 0-.685.768c-.066.084-.125.171-.188.259a7.528 7.528 0 0 0-.889 1.614c-.034.085-.074.166-.105.252a7.437 7.437 0 0 0-.283.991c-.018.085-.026.172-.042.259-.033.188-.072.374-.091.566L76.968 225.7 2.245 299.947c-.025.024-.044.054-.068.079a7.843 7.843 0 0 0-.695.807l-.022.027c-.208.285-.39.588-.558.901-.027.052-.057.103-.084.156a7.432 7.432 0 0 0-.399.945c-.018.052-.032.103-.05.156a7.546 7.546 0 0 0-.364 2.282c0 .071-.007.14-.005.211l2.44 109.251a7.603 7.603 0 0 0 6.174 7.299l30.807 5.888 65.378 20.695 31.79 36.933c.024.028.052.052.077.08.126.142.258.277.392.409.05.049.096.099.148.146.187.171.38.335.584.488.039.028.079.053.118.081.168.122.34.237.518.345.068.042.138.078.207.117a7.236 7.236 0 0 0 1.188.538c.079.028.158.057.238.082.167.053.338.097.51.139.079.019.157.042.237.058.186.039.375.066.566.091.066.008.132.022.199.029l.026.004 92.764 9.276a7.605 7.605 0 0 0 8.069-5.482l11.615-40.773 131.656 27.669a7.602 7.602 0 0 0 7.675-2.917l64.076-86.546c.01-.013.016-.028.026-.042.101-.139.185-.29.277-.436.107-.169.22-.336.313-.512.071-.135.126-.279.189-.419.091-.202.183-.401.256-.609.011-.033.029-.064.041-.097l22-65.821c.018-.053.028-.106.045-.16.016-.053.039-.102.054-.155l31.053-108.304a7.596 7.596 0 0 0-1.236-6.672zm-69.121 2.701-68.519 56.841-60.546-141.991 40.112-55.728 88.953 140.878zM289.542 324.642c-.013-.14-.01-.278-.03-.418-.003-.023-.012-.046-.016-.069-.036-.221-.095-.436-.15-.653-.039-.152-.065-.308-.113-.456-.064-.2-.152-.39-.232-.585-.063-.153-.115-.311-.188-.459-.092-.188-.208-.362-.315-.541-.084-.141-.157-.288-.25-.423-.115-.166-.252-.317-.381-.476-.108-.133-.207-.274-.324-.399-.118-.126-.256-.236-.382-.355-.15-.14-.294-.287-.455-.415l-.029-.026c-.133-.103-.277-.182-.415-.277-.165-.112-.324-.233-.499-.333-.191-.109-.389-.192-.587-.283-.146-.067-.285-.146-.435-.204a7.942 7.942 0 0 0-.83-.256c-.083-.021-.161-.056-.245-.075l-.027-.006-.011-.003-138.798-31.296 99.804-156.258h53.95l56.66 132.876 46.935 116.883-28.583 1.668-101.464 5.921 17.174-60.283c.041-.144.057-.289.089-.433.044-.197.093-.391.122-.592.027-.194.033-.386.046-.58.011-.182.03-.363.028-.546-.004-.219-.029-.432-.049-.648zM276.664 30.568l64.402 27.15-41.353 57.452h-55.896l-39.798-43.471 72.645-41.131zM172.997 170.081l22.722-84.926 35.198 38.447-78.274 122.551 3.842-14.355 9.19-34.346 7.322-27.371zm-10.68-18.923-5.169 19.319-3.89 14.538-41.062-17.723 50.121-16.134zm-72.7 83.412a7.603 7.603 0 0 0 2.206-4.631l5.304-52.588 52.158 22.512-22.693 84.814-98.214 10.742 61.239-60.849zM37.916 412.177l-20.406-3.899-2.147-96.135 101.256-11.074-78.703 111.108zm77.005 24.908a7.604 7.604 0 0 0-3.468-2.288l-57.504-18.203 42.947-55.756 36.442 48.184 1 50.621-19.417-22.558zm-8.737-89.176 29.979-47.637 125.119 28.213-118.368 67.99-36.73-48.566zm123.365 133.785-79.723-7.972-1.242-62.965 120.968-69.483-40.003 140.42zm154.511-18.708-123.722-26.002 19.168-34.454 156.057-9.108-51.503 69.564zm61.705-85.392-27.574 1.609-35.104-87.421 80.757 31.72-18.079 54.092zm22.576-68.665-83.814-32.921 69.486-57.643h40.294l-25.966 90.564z"/>
</svg>