<?xml version="1.0" encoding="iso-8859-1"?>
<!-- Generator: Adobe Illustrator 19.0.0, SVG Export Plug-In . SVG Version: 6.00 Build 0)  -->
<svg version="1.1" id="Layer_1" xmlns="http://www.w3.org/2000/svg" xmlns:xlink="http://www.w3.org/1999/xlink" x="0px" y="0px"
	 viewBox="0 0 355.381 355.381" style="enable-background:new 0 0 355.381 355.381;" xml:space="preserve">
<g id="XMLID_28_">
	<path id="XMLID_29_" d="M251.501,111.318l38.896-38.896c17.546-17.545,17.545-46.094,0-63.639
		c-3.719-3.719-7.935-6.641-12.431-8.783L247.97,29.996l-70.71,70.71v0.001l-42.427,42.426c-5.858,5.857-15.355,5.857-21.214,0
		c-5.857-5.857-5.857-15.355,0.001-21.213l42.426-42.427l30.015-30.015c-2.176-4.548-5.131-8.741-8.801-12.412
		c-17.546-17.545-46.094-17.545-63.641,0L71.348,79.339c-52.637,52.636-52.637,138.282,0,190.919l85.124,85.123l18.354-12.24
		c0.003-0.003,0.008-0.004,0.012-0.007l127.273-84.883c0.028-0.019,0.058-0.038,0.087-0.058l0.024-0.017
		c0.104-0.068,0.195-0.149,0.298-0.221c0.296-0.208,0.592-0.415,0.874-0.647c0.395-0.322,0.772-0.66,1.125-1.014
		c0.042-0.042,0.08-0.089,0.121-0.132c25.203-25.354,25.161-66.482-0.129-91.777L251.501,111.318z"/>
</g>
<g>
</g>
<g>
</g>
<g>
</g>
<g>
</g>
<g>
</g>
<g>
</g>
<g>
</g>
<g>
</g>
<g>
</g>
<g>
</g>
<g>
</g>
<g>
</g>
<g>
</g>
<g>
</g>
<g>
</g>
</svg>
