<?xml version="1.0" encoding="iso-8859-1"?>
<!-- Generator: Adobe Illustrator 16.0.0, SVG Export Plug-In . SVG Version: 6.00 Build 0)  -->
<!DOCTYPE svg PUBLIC "-//W3C//DTD SVG 1.1//EN" "http://www.w3.org/Graphics/SVG/1.1/DTD/svg11.dtd">
<svg version="1.1" id="Capa_1" xmlns="http://www.w3.org/2000/svg" xmlns:xlink="http://www.w3.org/1999/xlink" x="0px" y="0px"
	 width="40.314px" height="40.314px" viewBox="0 0 40.314 40.314" style="enable-background:new 0 0 40.314 40.314;"
	 xml:space="preserve">
<g>
	<path d="M20.156,11.507c-4.77,0-8.65,3.881-8.65,8.65c0,4.769,3.881,8.647,8.65,8.647c4.77,0,8.65-3.879,8.65-8.647
		C28.806,15.387,24.925,11.507,20.156,11.507z M20.156,27.555c-4.081,0-7.4-3.318-7.4-7.397c0-4.081,3.319-7.4,7.4-7.4
		c4.082,0,7.4,3.319,7.4,7.4C27.556,24.236,24.237,27.555,20.156,27.555z"/>
	<path d="M39.965,16.651l-4.097-2.047c-0.086-0.044-0.182-0.066-0.279-0.066h-1.87l1.41-1.411c0.071-0.072,0.125-0.16,0.153-0.252
		l1.361-4.255c0.069-0.224,0.012-0.466-0.154-0.632l-4.166-4.165c-0.162-0.164-0.409-0.227-0.639-0.151L27.339,5.12
		c-0.09,0.028-0.175,0.081-0.245,0.151l-1.319,1.318V4.596c0-0.098-0.022-0.193-0.068-0.288l-2.049-3.969
		C23.549,0.13,23.336,0,23.1,0h-5.889c-0.233,0-0.446,0.13-0.555,0.339l-2.049,3.97c-0.047,0.091-0.07,0.188-0.07,0.287v1.993
		l-1.409-1.411c-0.068-0.068-0.155-0.121-0.254-0.154L8.618,3.668c-0.221-0.07-0.472-0.009-0.631,0.154L3.824,7.987
		C3.658,8.151,3.598,8.393,3.67,8.62l1.356,4.256c0.032,0.096,0.086,0.183,0.152,0.249l1.41,1.412H4.595
		c-0.098,0-0.195,0.024-0.286,0.068l-3.971,2.049c-0.208,0.108-0.337,0.32-0.337,0.555v5.892c0,0.234,0.129,0.447,0.337,0.556
		l3.97,2.05c0.088,0.047,0.188,0.071,0.287,0.071h1.993l-1.41,1.407c-0.066,0.066-0.12,0.154-0.153,0.252l-1.356,4.256
		c-0.071,0.224-0.013,0.466,0.153,0.632l4.164,4.169c0.163,0.162,0.404,0.223,0.633,0.153l4.255-1.359
		c0.093-0.028,0.181-0.082,0.253-0.153l1.409-1.41v1.994c0,0.1,0.024,0.198,0.07,0.285l2.049,3.971
		c0.108,0.209,0.321,0.34,0.555,0.34h5.891c0.235,0,0.455-0.137,0.559-0.348l2.05-4.098c0.043-0.085,0.065-0.182,0.065-0.279v-1.865
		l1.412,1.41c0.07,0.07,0.157,0.125,0.252,0.153l4.256,1.358c0.23,0.066,0.474,0.005,0.631-0.154l4.166-4.167
		c0.166-0.169,0.225-0.413,0.149-0.639l-1.448-4.345c-0.027-0.09-0.08-0.176-0.15-0.246l-1.318-1.317h1.991
		c0.101,0,0.196-0.024,0.288-0.07l3.971-2.047c0.209-0.108,0.34-0.321,0.34-0.557v-5.895C40.312,16.973,40.179,16.759,39.965,16.651
		z M39.062,22.723l-3.498,1.806h-3.35c-0.254,0-0.48,0.151-0.578,0.386c-0.097,0.234-0.043,0.502,0.137,0.682l2.281,2.279
		l1.279,3.84l-3.624,3.623l-3.747-1.195l-2.37-2.368c-0.176-0.175-0.448-0.229-0.683-0.136c-0.233,0.099-0.385,0.324-0.385,0.578
		v3.225l-1.811,3.623h-5.123l-1.805-3.497v-3.351c0-0.254-0.151-0.481-0.386-0.576c-0.229-0.094-0.504-0.041-0.682,0.135
		l-2.369,2.37l-3.748,1.196l-3.626-3.629l1.194-3.748l2.369-2.367c0.177-0.178,0.231-0.452,0.135-0.682
		c-0.096-0.234-0.322-0.387-0.577-0.387H4.745L1.25,22.723v-5.131l3.495-1.803h3.351c0.25,0,0.482-0.155,0.576-0.386
		c0.098-0.234,0.045-0.502-0.134-0.681L6.169,12.35L4.975,8.601l3.626-3.626l3.748,1.194l2.369,2.371
		c0.177,0.176,0.452,0.231,0.682,0.136c0.234-0.098,0.386-0.324,0.386-0.578V4.747l1.805-3.497h5.129l1.805,3.497v3.351
		c0,0.253,0.151,0.479,0.387,0.579c0.229,0.091,0.506,0.037,0.682-0.137l2.281-2.282l3.84-1.279l3.622,3.622l-1.197,3.748
		l-2.37,2.371c-0.178,0.179-0.23,0.446-0.136,0.683c0.099,0.233,0.325,0.385,0.578,0.385h3.231l3.619,1.808V22.723z"/>
</g>
<g>
</g>
<g>
</g>
<g>
</g>
<g>
</g>
<g>
</g>
<g>
</g>
<g>
</g>
<g>
</g>
<g>
</g>
<g>
</g>
<g>
</g>
<g>
</g>
<g>
</g>
<g>
</g>
<g>
</g>
</svg>
